<mxfile host="65bd71144e">
    <diagram id="g6cZJBXxOhn6E-Na-1jT" name="Page-1">
        <mxGraphModel dx="652" dy="925" grid="1" gridSize="10" guides="1" tooltips="1" connect="1" arrows="1" fold="1" page="1" pageScale="1" pageWidth="850" pageHeight="1100" math="0" shadow="0">
            <root>
                <mxCell id="0"/>
                <mxCell id="1" parent="0"/>
                <mxCell id="6" value="Data Segment" style="rounded=0;whiteSpace=wrap;html=1;verticalAlign=top;fontSize=15;dashed=1;" vertex="1" parent="1">
                    <mxGeometry x="310" y="50" width="400" height="160" as="geometry"/>
                </mxCell>
                <mxCell id="2" value="Code Segment" style="rounded=0;whiteSpace=wrap;html=1;fontSize=15;" vertex="1" parent="1">
                    <mxGeometry x="40" y="80" width="80" height="120" as="geometry"/>
                </mxCell>
                <mxCell id="3" value="Stack Segment" style="rounded=0;whiteSpace=wrap;html=1;fontSize=15;" vertex="1" parent="1">
                    <mxGeometry x="140" y="80" width="160" height="120" as="geometry"/>
                </mxCell>
                <mxCell id="4" value="Static Area&lt;br style=&quot;font-size: 15px;&quot;&gt;(global variables)" style="rounded=0;whiteSpace=wrap;html=1;fontSize=15;" vertex="1" parent="1">
                    <mxGeometry x="320" y="80" width="90" height="120" as="geometry"/>
                </mxCell>
                <mxCell id="5" value="Heap Area" style="rounded=0;whiteSpace=wrap;html=1;fontSize=15;" vertex="1" parent="1">
                    <mxGeometry x="420" y="80" width="280" height="120" as="geometry"/>
                </mxCell>
            </root>
        </mxGraphModel>
    </diagram>
</mxfile>